<svg xmlns="http://www.w3.org/2000/svg" width="21.813" height="16.753" viewBox="0 0 21.813 16.753">
  <g id="ico-youtube" transform="translate(-35.56 -47.54)">
    <path id="Path_174" data-name="Path 174" d="M57.154,51.29a5.31,5.31,0,0,0-.91-2.439,3.169,3.169,0,0,0-2.221-1.056h-.146c-2.949-.221-7.354-.255-7.427-.255-.036,0-4.478.036-7.392.331h-.11a3.054,3.054,0,0,0-2.221,1.056,5.144,5.144,0,0,0-.947,2.476,36.424,36.424,0,0,0-.221,3.714v1.711c0,1.82.221,3.677.221,3.714a5.31,5.31,0,0,0,.91,2.439,3.246,3.246,0,0,0,2.257,1.056.8.8,0,0,1,.291.036c1.675.146,6.99.221,7.209.221.036,0,4.478,0,7.427-.331h.11a3.054,3.054,0,0,0,2.221-1.056,5.144,5.144,0,0,0,.947-2.476,36.422,36.422,0,0,0,.221-3.714V55C57.372,53.183,57.154,51.326,57.154,51.29Zm-.51,5.5a35.019,35.019,0,0,1-.221,3.641,4.855,4.855,0,0,1-.765,2.075,2.384,2.384,0,0,1-1.748.837H53.8c-2.913.221-7.318.221-7.354.221s-5.5-.073-7.1-.255c-.11,0-.221-.036-.331-.036a2.523,2.523,0,0,1-1.82-.8,4.424,4.424,0,0,1-.728-2.039c0-.036-.221-1.857-.221-3.641V55.076a35.017,35.017,0,0,1,.221-3.641A4.752,4.752,0,0,1,37.2,49.36a2.449,2.449,0,0,1,1.784-.837h.11c2.913-.221,7.318-.255,7.354-.255s4.442.036,7.354.255h.146a2.388,2.388,0,0,1,1.748.837,5.2,5.2,0,0,1,.728,2.075,28.45,28.45,0,0,1,.221,3.641v1.711Z" fill="#fff"/>
    <path id="Path_175" data-name="Path 175" d="M115.333,90.741,108.416,86.7a.331.331,0,0,0-.364,0,.383.383,0,0,0-.182.331v7.9a.383.383,0,0,0,.182.331.473.473,0,0,0,.364,0l6.917-3.861a.386.386,0,0,0,0-.655Zm-6.73,3.568V87.647l5.825,3.42Z" transform="translate(-64.332 -34.791)" fill="#fff"/>
  </g>
</svg>
